<svg t="1608029021091" class="icon" viewBox="0 0 1024 1024" version="1.1" xmlns="http://www.w3.org/2000/svg" p-id="4002" width="128" height="128"><path d="M855.04 67H168.96c-37.53 0.04-67.95 30.46-67.99 67.99v754.02c0.04 37.53 30.46 67.95 67.99 67.99h686.08c37.53-0.04 67.95-30.46 67.99-67.99V134.99c-0.04-37.53-30.46-67.95-67.99-67.99z m1.76 64.42v173.85H167.2V131.42h689.6zM167.2 892.58V393.42h689.6v499.16H167.2z m0 0" fill="#999999" p-id="4003"></path><path d="M260.65 551.29c0 18.29 9.75 35.18 25.59 44.32a51.143 51.143 0 0 0 51.18 0 51.176 51.176 0 0 0 0-88.64 51.192 51.192 0 0 0-51.18 0 51.156 51.156 0 0 0-25.59 44.32z m0 0M462.32 551.29c0 18.29 9.76 35.18 25.59 44.32a51.143 51.143 0 0 0 51.18 0 51.176 51.176 0 0 0 0-88.64 51.192 51.192 0 0 0-51.18 0 51.156 51.156 0 0 0-25.59 44.32z m0 0M661 551.29c0 18.29 9.75 35.18 25.59 44.32a51.143 51.143 0 0 0 51.18 0 51.176 51.176 0 0 0 0-88.64 51.192 51.192 0 0 0-51.18 0A51.156 51.156 0 0 0 661 551.29z m0 0M260.65 748.45c0 18.28 9.75 35.18 25.59 44.32a51.192 51.192 0 0 0 51.18 0 51.189 51.189 0 0 0 25.59-44.32c0-18.28-9.75-35.18-25.59-44.32a51.192 51.192 0 0 0-51.18 0 51.168 51.168 0 0 0-25.59 44.32z m0 0M462.32 748.45c0 18.28 9.76 35.18 25.59 44.32a51.192 51.192 0 0 0 51.18 0 51.189 51.189 0 0 0 25.59-44.32c0-18.28-9.75-35.18-25.59-44.32a51.192 51.192 0 0 0-51.18 0 51.168 51.168 0 0 0-25.59 44.32z m0 0M661 748.45c0 18.28 9.75 35.18 25.59 44.32a51.192 51.192 0 0 0 51.18 0 51.189 51.189 0 0 0 25.59-44.32c0-18.28-9.75-35.18-25.59-44.32a51.192 51.192 0 0 0-51.18 0A51.168 51.168 0 0 0 661 748.45z m0 0" fill="#999999" p-id="4004"></path></svg>